<svg width="21" height="20" viewBox="0 0 21 20" fill="none" xmlns="http://www.w3.org/2000/svg">
<path d="M9.60298 0.85958C9.90283 -0.0606967 11.2047 -0.0606959 11.5046 0.859581L13.2557 6.23398C13.3898 6.64561 13.7736 6.92418 14.2065 6.92418H19.8672C20.8366 6.92418 21.239 8.16521 20.454 8.73398L15.8791 12.0486C15.5276 12.3033 15.3806 12.7555 15.515 13.1682L17.2636 18.5349C17.5636 19.4557 16.5103 20.2227 15.7261 19.6544L11.1405 16.3321C10.7905 16.0784 10.3171 16.0784 9.96707 16.3321L5.38152 19.6544C4.59726 20.2227 3.54397 19.4557 3.844 18.5348L5.59257 13.1682C5.72702 12.7555 5.57994 12.3033 5.22848 12.0486L0.653609 8.73398C-0.131397 8.16521 0.270933 6.92418 1.24033 6.92418H6.90108C7.33401 6.92418 7.71777 6.64561 7.85189 6.23398L9.60298 0.85958Z" fill="#E5E5E5"/>
</svg>
